<svg width="14" height="14" viewBox="0 0 14 14" xmlns="http://www.w3.org/2000/svg">
    <path
        d="M8.5444 1.41002C8.44966 1.52414 8.39089 1.66377 8.3755 1.81129C8.36011 1.9588 8.38881 2.10756 8.45796 2.23877C8.5271 2.36998 8.6336 2.47774 8.76398 2.54843C8.89436 2.61912 9.04278 2.64956 9.19046 2.63592L10.556 2.50958L1.11441 12.0776C0.987323 12.2306 0.926223 12.4278 0.944555 12.6259C0.962887 12.824 1.05915 13.0066 1.21217 13.1337C1.36518 13.2608 1.56242 13.3219 1.76049 13.3036C1.95855 13.2853 2.14122 13.189 2.26831 13.036L12.8667 2.07516C12.9615 1.96105 13.0203 1.8214 13.0356 1.67389C13.051 1.52638 13.0223 1.37761 12.9532 1.24641C12.884 1.1152 12.7775 1.00744 12.6472 0.936751C12.5168 0.86606 12.3684 0.835616 12.2207 0.849263L9.05224 1.14252C8.95414 1.15145 8.85877 1.17968 8.77162 1.22559C8.68447 1.2715 8.60725 1.33417 8.5444 1.41002Z"
        stroke="none" />
</svg>
    