<svg width="14" height="14" viewBox="0 0 14 14" xmlns="http://www.w3.org/2000/svg">
    <path
        d="M13.2947 5.35523C13.1999 5.4693 13.0735 5.55271 12.9313 5.59491C12.7891 5.63711 12.6376 5.63621 12.4959 5.59232C12.3543 5.54843 12.2288 5.46352 12.1354 5.34833C12.0419 5.23313 11.9848 5.09283 11.9711 4.94515L11.8446 3.57961L2.22001 12.9542C2.09292 13.1072 1.91025 13.2035 1.71218 13.2218C1.51412 13.2401 1.31688 13.179 1.16386 13.052C1.01085 12.9249 0.914584 12.7422 0.896252 12.5441C0.877919 12.3461 0.93902 12.1488 1.06611 11.9958L11.8476 1.22841C11.9424 1.11433 12.0688 1.03093 12.211 0.988725C12.3532 0.946524 12.5047 0.947428 12.6464 0.991319C12.788 1.03521 12.9135 1.12012 13.0069 1.23531C13.1004 1.35051 13.1575 1.49081 13.1712 1.63849L13.4645 4.80693C13.4737 4.905 13.4635 5.00392 13.4343 5.09802C13.4052 5.19212 13.3578 5.27953 13.2947 5.35523Z"
        stroke="none" />
    <path
        d="M8.5444 1.41002C8.44966 1.52414 8.39089 1.66377 8.3755 1.81129C8.36011 1.9588 8.38881 2.10756 8.45796 2.23877C8.5271 2.36998 8.6336 2.47774 8.76398 2.54843C8.89436 2.61912 9.04278 2.64956 9.19046 2.63592L10.556 2.50958L1.11441 12.0776C0.987323 12.2306 0.926223 12.4278 0.944555 12.6259C0.962887 12.824 1.05915 13.0066 1.21217 13.1337C1.36518 13.2608 1.56242 13.3219 1.76049 13.3036C1.95855 13.2853 2.14122 13.189 2.26831 13.036L12.8667 2.07516C12.9615 1.96105 13.0203 1.8214 13.0356 1.67389C13.051 1.52638 13.0223 1.37761 12.9532 1.24641C12.884 1.1152 12.7775 1.00744 12.6472 0.936751C12.5168 0.86606 12.3684 0.835616 12.2207 0.849263L9.05224 1.14252C8.95414 1.15145 8.85877 1.17968 8.77162 1.22559C8.68447 1.2715 8.60725 1.33417 8.5444 1.41002Z"
        stroke="none" />
</svg>
    