<svg width="18" height="18" viewBox="0 0 18 18" xmlns="http://www.w3.org/2000/svg">
    <path
        d="M12.0654 10.0509C12.0654 9.70577 12.3453 9.42594 12.6904 9.42594H12.6979C13.0431 9.42594 13.3229 9.70577 13.3229 10.0509C13.3229 10.3961 13.0431 10.6759 12.6979 10.6759H12.6904C12.3453 10.6759 12.0654 10.3961 12.0654 10.0509Z"
        stroke="none" />
    <path
        d="M9.02425 9.42594C8.67907 9.42594 8.39925 9.70577 8.39925 10.0509C8.39925 10.3961 8.67907 10.6759 9.02425 10.6759H9.03175C9.37693 10.6759 9.65675 10.3961 9.65675 10.0509C9.65675 9.70577 9.37693 9.42594 9.03175 9.42594H9.02425Z"
        stroke="none" />
    <path
        d="M4.72616 10.0509C4.72616 9.70577 5.00598 9.42594 5.35116 9.42594H5.35865C5.70383 9.42594 5.98365 9.70577 5.98365 10.0509C5.98365 10.3961 5.70383 10.6759 5.35865 10.6759H5.35116C5.00598 10.6759 4.72616 10.3961 4.72616 10.0509Z"
        stroke="none" />
    <path
        d="M12.6904 12.636C12.3453 12.636 12.0654 12.9158 12.0654 13.261C12.0654 13.6062 12.3453 13.886 12.6904 13.886H12.6979C13.0431 13.886 13.3229 13.6062 13.3229 13.261C13.3229 12.9158 13.0431 12.636 12.6979 12.636H12.6904Z"
        stroke="none" />
    <path
        d="M8.39925 13.261C8.39925 12.9158 8.67907 12.636 9.02425 12.636H9.03175C9.37693 12.636 9.65675 12.9158 9.65675 13.261C9.65675 13.6062 9.37693 13.886 9.03175 13.886H9.02425C8.67907 13.886 8.39925 13.6062 8.39925 13.261Z"
        stroke="none" />
    <path
        d="M5.35116 12.636C5.00598 12.636 4.72616 12.9158 4.72616 13.261C4.72616 13.6062 5.00598 13.886 5.35116 13.886H5.35865C5.70383 13.886 5.98365 13.6062 5.98365 13.261C5.98365 12.9158 5.70383 12.636 5.35865 12.636H5.35116Z"
        stroke="none" />
    <path fill-rule="evenodd" clip-rule="evenodd"
        d="M12.3608 0.0834961C12.706 0.0834961 12.9858 0.363318 12.9858 0.708496V1.74945C13.9983 2.04556 14.8357 2.50233 15.5001 3.16655C16.8932 4.5594 17.374 6.71348 17.374 9.64645C17.374 12.5794 16.8932 14.7335 15.5001 16.1263C14.107 17.5192 11.9528 17.9998 9.01984 17.9998C6.08731 17.9998 3.93327 17.5192 2.54031 16.1263C1.14734 14.7335 0.666504 12.5794 0.666504 9.64645C0.666504 6.71347 1.14734 4.55942 2.54031 3.16657C3.20633 2.5006 4.04635 2.04318 5.06226 1.74713V0.708496C5.06226 0.363318 5.34208 0.0834961 5.68726 0.0834961C6.03243 0.0834961 6.31226 0.363318 6.31226 0.708496V1.47452C7.12628 1.34803 8.02859 1.29311 9.01984 1.29311C10.0145 1.29311 10.9196 1.34839 11.7358 1.47578V0.708496C11.7358 0.363318 12.0157 0.0834961 12.3608 0.0834961ZM5.06226 3.05982V3.42683C5.06226 3.77201 5.34208 4.05183 5.68726 4.05183C6.03243 4.05183 6.31226 3.77201 6.31226 3.42683V2.74139C7.07502 2.60835 7.9699 2.54311 9.01984 2.54311C10.0736 2.54311 10.9712 2.60881 11.7358 2.74279V3.42683C11.7358 3.77201 12.0157 4.05183 12.3608 4.05183C12.706 4.05183 12.9858 3.77201 12.9858 3.42683V3.06262C13.6655 3.30455 14.1983 3.63266 14.6163 4.05051C15.125 4.55919 15.5008 5.23826 15.75 6.1451H2.29049C2.53965 5.23825 2.91542 4.55918 3.42416 4.05049C3.84364 3.63104 4.37896 3.30201 5.06226 3.05982ZM2.04536 7.3951C1.95901 8.05257 1.9165 8.799 1.9165 9.64645C1.9165 12.5101 2.40192 14.2203 3.42416 15.2424C4.44641 16.2646 6.15653 16.7498 9.01984 16.7498C11.8836 16.7498 13.5939 16.2646 14.6163 15.2424C15.6386 14.2202 16.124 12.5101 16.124 9.64645C16.124 8.79899 16.0815 8.05257 15.9951 7.3951H2.04536Z"
        stroke="none" />
</svg>
    