<svg width="20" height="20" viewBox="0 0 20 20" xmlns="http://www.w3.org/2000/svg">
    <path
        d="M4.16686 11.6665H15.1133C15.9573 11.6665 16.3793 11.6665 16.7153 11.5091C17.0112 11.3705 17.2599 11.148 17.4304 10.8691C17.6238 10.5526 17.6705 10.1332 17.7637 9.29432L18.2512 4.90679C18.2796 4.65057 18.2939 4.52246 18.2527 4.4233C18.2165 4.33622 18.1518 4.26398 18.0693 4.2184C17.9753 4.1665 17.8464 4.1665 17.5886 4.1665H3.7502M1.66675 1.6665H2.70711C2.92763 1.6665 3.03789 1.6665 3.12415 1.70844C3.2001 1.74536 3.26303 1.80448 3.30461 1.87797C3.35185 1.96145 3.35873 2.0715 3.37248 2.29159L4.12768 14.3748C4.14144 14.5948 4.14831 14.7049 4.19555 14.7884C4.23713 14.8619 4.30007 14.921 4.37601 14.9579C4.46227 14.9998 4.57253 14.9998 4.79305 14.9998H15.8334M6.25008 17.9165H6.25842M13.7501 17.9165H13.7584M6.66675 17.9165C6.66675 18.1466 6.4802 18.3332 6.25008 18.3332C6.01996 18.3332 5.83341 18.1466 5.83341 17.9165C5.83341 17.6864 6.01996 17.4998 6.25008 17.4998C6.4802 17.4998 6.66675 17.6864 6.66675 17.9165ZM14.1667 17.9165C14.1667 18.1466 13.9802 18.3332 13.7501 18.3332C13.52 18.3332 13.3334 18.1466 13.3334 17.9165C13.3334 17.6864 13.52 17.4998 13.7501 17.4998C13.9802 17.4998 14.1667 17.6864 14.1667 17.9165Z"
        fill="none" stroke-width="1.5" stroke-linecap="round" stroke-linejoin="round" />
</svg>
    