<svg width="23" height="13" viewBox="0 0 23 13" xmlns="http://www.w3.org/2000/svg">
    <path
        d="M21.9313 11.6352C22.1328 11.8241 22.143 12.1405 21.9541 12.342C21.7653 12.5434 21.4488 12.5536 21.2474 12.3648L21.9313 11.6352ZM13.5894 4.5L13.1131 4.34761C13.1654 4.18428 13.2977 4.05913 13.4637 4.01604C13.6297 3.97295 13.8062 4.01794 13.9313 4.13523L13.5894 4.5ZM0.0893555 0L5.71331 1.30557L1.77067 5.52327L0.0893555 0ZM11.5894 10.75L12.0656 10.9024C12.0133 11.0656 11.8812 11.1907 11.7153 11.2339C11.5495 11.277 11.3731 11.2323 11.2479 11.1153L11.5894 10.75ZM21.5894 12L21.2474 12.3648L13.2474 4.86477L13.5894 4.5L13.9313 4.13523L21.9313 11.6352L21.5894 12ZM13.5894 4.5L14.0656 4.65239L12.0656 10.9024L11.5894 10.75L11.1131 10.5976L13.1131 4.34761L13.5894 4.5ZM11.5894 10.75L11.2479 11.1153L3.03528 3.43824L3.37673 3.07298L3.71817 2.70771L11.9308 10.3847L11.5894 10.75Z"
        stroke="none" />
</svg>
    