<svg width="17" height="21" viewBox="0 0 17 21" fill="none" xmlns="http://www.w3.org/2000/svg">
    <path fill-rule="evenodd" clip-rule="evenodd"
        d="M16.6271 13.8387C16.6271 18.7754 12.3167 19.9312 11.2221 20.145C11.1362 20.1621 11.0887 20.1725 11.0067 20.1821C10.9533 20.186 10.8998 20.1879 10.8462 20.1875L6.87124 20.1846C6.82083 20.1846 6.65374 20.1779 6.64541 20.1775C6.34233 20.1541 6.04057 20.1159 5.74124 20.0629C4.17124 19.7917 1.30458 18.9354 0.992078 16.2767C0.730828 14.0517 1.68166 12.9408 2.87583 11.4558C3.83833 10.2588 3.08416 8.4875 3.07833 8.47083C3.10333 8.48417 4.70041 9.3625 5.08166 10.1142C5.27694 10.4703 5.43339 10.8463 5.54833 11.2358C5.54083 11.1746 5.20666 8.41833 6.63166 6.565C8.07291 4.69 8.37541 4.11542 8.40249 3.15667C8.34447 2.3424 8.13134 1.54674 7.77458 0.8125C9.16803 1.69645 10.349 2.87738 11.2329 4.27083C11.9217 5.36373 12.3042 6.6216 12.3404 7.91292C12.7137 7.54194 13.0054 7.097 13.1967 6.60667C13.3426 6.0435 13.374 5.45679 13.2892 4.88125L14.17 6.38125C15.1587 8.1925 16.6271 11.305 16.6271 13.8387Z"
        fill="#D75C1E" />
    <path fill-rule="evenodd" clip-rule="evenodd"
        d="M16.6271 13.8388C16.6271 11.3051 15.1587 8.19257 14.1687 6.3834L13.2879 4.8834C13.3728 5.45894 13.3413 6.04565 13.1954 6.60882C13.0045 7.0993 12.7128 7.54429 12.3392 7.91506C12.3029 6.62387 11.9204 5.36613 11.2317 4.2734C10.8729 3.73088 10.4738 3.2161 10.0379 2.7334C9.94708 3.52257 9.56291 4.16507 8.28791 5.82132C6.86208 7.67465 7.19666 10.4309 7.20458 10.4921C7.08953 10.1026 6.93322 9.72644 6.73833 9.37007C6.48532 8.97875 6.15372 8.64432 5.76458 8.38798C5.52748 9.31749 5.45388 10.2812 5.54708 11.2359C5.43203 10.8463 5.27572 10.4702 5.08083 10.1138C5.03999 10.0354 4.99186 9.96108 4.93708 9.89173C4.86275 10.1912 4.7246 10.471 4.53208 10.7121C3.33791 12.1971 2.38708 13.308 2.64833 15.533C2.96083 18.1917 5.82708 19.0484 7.39833 19.3192C7.7351 19.3797 8.07513 19.4203 8.41666 19.4409L12.6283 19.4438H12.6308L12.6842 19.4359C13.0328 19.3783 13.3767 19.2948 13.7129 19.1859C15.1558 18.3167 16.6271 16.723 16.6271 13.8388Z"
        fill="#FF6600" />
    <path
        d="M12.6412 17.0636C12.6437 15.184 10.9987 12.6574 10.9987 12.6574C11.0405 12.9406 11.025 13.2293 10.9533 13.5065C10.8592 13.7477 10.7157 13.9665 10.5321 14.149C10.5139 13.5138 10.3257 12.8951 9.98707 12.3574C9.55238 11.6714 8.97126 11.0901 8.28541 10.6553C8.35064 11.2404 8.33268 11.8318 8.23207 12.4119C7.94374 13.7569 7.03791 14.4019 5.92624 15.5961C5.45957 16.1307 4.79499 17.1724 4.94874 18.2628C4.97275 18.438 5.01607 18.61 5.07791 18.7757C5.14355 18.9463 5.21852 19.1133 5.30249 19.2757C5.43135 19.5278 5.62231 19.7429 5.85734 19.9007C6.09237 20.0585 6.36373 20.1539 6.64582 20.1778C6.65416 20.1778 6.82124 20.1849 6.87166 20.1849L10.8462 20.1878C10.8954 20.1878 10.9737 20.1878 11.0067 20.1824L11.0283 20.1794C11.1862 20.1215 12.6379 19.5244 12.6412 17.0636Z"
        fill="#FF8300" />
    <path fill-rule="evenodd" clip-rule="evenodd"
        d="M10.9987 12.6576C11.0405 12.9407 11.025 13.2293 10.9533 13.5063C10.8593 13.7477 10.7158 13.9667 10.5321 14.1493C10.5139 13.514 10.3257 12.8953 9.98706 12.3576C9.91873 12.2547 9.84956 12.1568 9.77873 12.0659C9.40998 13.1538 8.57873 13.7834 7.58206 14.8543C7.1154 15.3893 6.45081 16.4305 6.60456 17.5209C6.60831 17.548 6.61706 17.5905 6.63081 17.6459C6.76154 18.1498 7.05417 18.5967 7.46371 18.918C7.87324 19.2393 8.37699 19.4172 8.89748 19.4243L9.84081 19.4434H10.2225C10.8525 19.4492 11.4595 19.2064 11.9118 18.7678C12.3642 18.3292 12.6255 17.73 12.6391 17.1001V17.0655C12.6437 15.1843 10.9987 12.6576 10.9987 12.6576Z"
        fill="#FFA511" />
</svg>
    