<svg width="21" height="21" viewBox="0 0 21 21" xmlns="http://www.w3.org/2000/svg">
    <path
        d="M19.5 9.699H18.52C17.967 9.699 17.52 10.058 17.52 10.5C17.52 10.941 17.967 11.299 18.52 11.299H19.5C20.052 11.299 20.5 10.942 20.5 10.5C20.5 10.059 20.051 9.699 19.5 9.699ZM10.5 5C9.7771 4.99776 9.06089 5.13848 8.39259 5.41409C7.72428 5.6897 7.11708 6.09474 6.60591 6.60591C6.09474 7.11708 5.6897 7.72428 5.41409 8.39259C5.13848 9.06089 4.99776 9.7771 5 10.5C5 13.551 7.449 16 10.5 16C13.55 16 16 13.551 16 10.5C16 7.449 13.549 5 10.5 5ZM10.5 14.5C8.289 14.5 6.5 12.709 6.5 10.5C6.5 8.289 8.289 6.5 10.5 6.5C11.5609 6.5 12.5783 6.92143 13.3284 7.67157C14.0786 8.42172 14.5 9.43913 14.5 10.5C14.5 11.5609 14.0786 12.5783 13.3284 13.3284C12.5783 14.0786 11.5609 14.5 10.5 14.5ZM3.5 10.5C3.5 10.059 3.051 9.699 2.5 9.699H1.5C0.947 9.699 0.5 10.058 0.5 10.5C0.5 10.941 0.947 11.299 1.5 11.299H2.5C3.051 11.299 3.5 10.941 3.5 10.5ZM10.5 3.5C10.941 3.5 11.299 3.053 11.299 2.5V1.5C11.299 0.947 10.941 0.5 10.5 0.5C10.058 0.5 9.699 0.947 9.699 1.5V2.5C9.699 3.053 10.058 3.5 10.5 3.5ZM10.5 17.5C10.058 17.5 9.699 17.947 9.699 18.5V19.5C9.699 20.053 10.058 20.5 10.5 20.5C10.941 20.5 11.299 20.053 11.299 19.5V18.5C11.299 17.947 10.941 17.5 10.5 17.5ZM17.865 4.266C18.256 3.875 18.319 3.305 18.007 2.993C17.695 2.681 17.124 2.745 16.735 3.136L16.035 3.835C15.644 4.226 15.581 4.796 15.893 5.108C16.205 5.42 16.776 5.356 17.166 4.965L17.865 4.266ZM3.834 16.033L3.134 16.734C2.743 17.125 2.68 17.693 2.992 18.005C3.304 18.317 3.875 18.255 4.264 17.864L4.964 17.165C5.355 16.774 5.418 16.204 5.106 15.891C4.794 15.578 4.223 15.644 3.834 16.033ZM4.265 3.135C3.875 2.744 3.304 2.68 2.992 2.992C2.68 3.304 2.744 3.875 3.133 4.266L3.833 4.965C4.224 5.356 4.793 5.42 5.105 5.108C5.417 4.796 5.354 4.225 4.964 3.835L4.265 3.135ZM16.034 17.166L16.734 17.865C17.125 18.256 17.694 18.318 18.006 18.008C18.318 17.696 18.255 17.125 17.864 16.735L17.165 16.036C16.774 15.645 16.204 15.581 15.891 15.893C15.578 16.205 15.643 16.775 16.034 17.166Z"
        stroke="none" />
</svg>
    