<svg width="38" height="38" viewBox="0 0 38 38" fill="none" xmlns="http://www.w3.org/2000/svg">
    <path
        d="M37.4058 19.0001C37.4058 23.9165 35.4913 28.5386 32.0149 32.015C28.5385 35.4914 23.9164 37.406 19 37.406C14.0836 37.406 9.46146 35.4914 5.98505 32.015C2.50865 28.5386 0.594116 23.9165 0.594116 19.0001C0.594116 14.0837 2.50865 9.46158 5.98505 5.98518C9.46146 2.50877 14.0836 0.594238 19 0.594238C23.9164 0.594238 28.5385 2.50877 32.0149 5.98518C35.4913 9.46158 37.4058 14.0837 37.4058 19.0001Z"
        fill="#EE1B2E" />
    <path
        d="M36.3898 12.9398H1.61011C2.50933 10.3516 3.99058 7.97969 5.98511 5.98516C9.46167 2.50859 14.0835 0.59375 19 0.59375C23.9164 0.59375 28.5382 2.50859 32.0148 5.98516C34.0093 7.97969 35.4906 10.3516 36.3898 12.9398Z"
        fill="#282828" />
    <path
        d="M36.3898 25.0601C35.4906 27.6483 34.0093 30.0202 32.0148 32.0147C28.5382 35.4913 23.9164 37.4062 19 37.4062C14.0835 37.4062 9.46167 35.4913 5.98511 32.0147C3.99058 30.0202 2.50933 27.6483 1.61011 25.0601H36.3898Z"
        fill="#FDC301" />
    <path opacity="0.13"
        d="M37.4062 19.0002C37.4062 23.9166 35.4914 28.5385 32.0148 32.015C28.5383 35.4916 23.9164 37.4064 19 37.4064C15.2484 37.4064 11.6687 36.2916 8.63904 34.2189C11.7484 35.5729 15.1781 36.051 18.6226 35.5744C23.5633 34.8908 27.9414 32.3236 30.9515 28.3471C33.9609 24.3697 35.2422 19.4588 34.5586 14.5189C33.9601 10.201 31.925 6.3127 28.7664 3.3916C29.9297 4.12207 31.0195 4.99004 32.0148 5.98535C35.4914 9.46192 37.4062 14.0838 37.4062 19.0002Z"
        fill="#160204" />
    <path opacity="0.25"
        d="M27.7492 2.79688C24.4719 1.85156 20.9875 1.80625 17.6039 2.70078C12.6719 4.00547 8.54375 7.15234 5.97812 11.5617C3.41328 15.9719 2.71875 21.1164 4.02344 26.0484C4.81953 29.0594 6.30234 31.7703 8.34062 34.0102C7.50937 33.418 6.72188 32.7516 5.98516 32.0148C2.50859 28.5383 0.59375 23.9164 0.59375 19C0.59375 14.0836 2.50859 9.46172 5.98516 5.98516C9.46172 2.50859 14.0836 0.59375 19 0.59375C22.1055 0.59375 25.093 1.35781 27.7492 2.79688Z"
        fill="white" />
    <path
        d="M24.1176 24.7222H21.4706C20.304 24.7198 19.1619 24.3845 18.1765 23.7553C17.1912 23.126 16.4029 22.2285 15.9029 21.1667H21.4706C21.7046 21.1667 21.929 21.073 22.0945 20.9063C22.26 20.7396 22.3529 20.5135 22.3529 20.2778C22.3529 20.042 22.26 19.8159 22.0945 19.6492C21.929 19.4825 21.7046 19.3889 21.4706 19.3889H15.3647C15.2706 18.8001 15.2706 18.1999 15.3647 17.6111H22.3529C22.587 17.6111 22.8114 17.5175 22.9769 17.3508C23.1423 17.1841 23.2353 16.958 23.2353 16.7222C23.2353 16.4865 23.1423 16.2604 22.9769 16.0937C22.8114 15.927 22.587 15.8333 22.3529 15.8333H15.9029C16.4029 14.7715 17.1912 13.874 18.1765 13.2447C19.1619 12.6155 20.304 12.2802 21.4706 12.2778H24.1176C24.3517 12.2778 24.5761 12.1841 24.7416 12.0174C24.907 11.8507 25 11.6246 25 11.3889C25 11.1531 24.907 10.927 24.7416 10.7603C24.5761 10.5937 24.3517 10.5 24.1176 10.5H21.4706C19.8307 10.5028 18.2319 11.017 16.8937 11.9719C15.5556 12.9269 14.5437 14.2758 13.9971 15.8333H11.7647C11.5307 15.8333 11.3063 15.927 11.1408 16.0937C10.9753 16.2604 10.8824 16.4865 10.8824 16.7222C10.8824 16.958 10.9753 17.1841 11.1408 17.3508C11.3063 17.5175 11.5307 17.6111 11.7647 17.6111H13.5824C13.5117 18.2016 13.5117 18.7984 13.5824 19.3889H10.8824C10.6483 19.3889 10.4239 19.4825 10.2584 19.6492C10.093 19.8159 10 20.042 10 20.2778C10 20.5135 10.093 20.7396 10.2584 20.9063C10.4239 21.073 10.6483 21.1667 10.8824 21.1667H13.9971C14.5437 22.7242 15.5556 24.0731 16.8937 25.0281C18.2319 25.983 19.8307 26.4972 21.4706 26.5H24.1176C24.3517 26.5 24.5761 26.4064 24.7416 26.2397C24.907 26.073 25 25.8469 25 25.6111C25 25.3754 24.907 25.1493 24.7416 24.9826C24.5761 24.8159 24.3517 24.7222 24.1176 24.7222Z"
        fill="white" />
</svg>
    