<svg width="38" height="38" viewBox="0 0 38 38" fill="none" xmlns="http://www.w3.org/2000/svg">
    <path
        d="M37.406 19.0001C37.406 23.9165 35.4914 28.5386 32.015 32.015C28.5386 35.4914 23.9165 37.406 19.0001 37.406C14.0837 37.406 9.46158 35.4914 5.98518 32.015C2.50877 28.5386 0.594238 23.9165 0.594238 19.0001C0.594238 14.0837 2.50877 9.46158 5.98518 5.98518C9.46158 2.50877 14.0837 0.594238 19.0001 0.594238C23.9165 0.594238 28.5386 2.50877 32.015 5.98518C35.4914 9.46158 37.406 14.0837 37.406 19.0001Z"
        fill="#EFEFEF" />
    <path
        d="M36.3664 12.875H1.63354C2.53433 10.3125 4.00698 7.96328 5.98511 5.98516C9.46167 2.50859 14.0835 0.59375 19 0.59375C23.9164 0.59375 28.5382 2.50859 32.0148 5.98516C33.9929 7.96328 35.4656 10.3125 36.3664 12.875Z"
        fill="#6DA444" />
    <path
        d="M36.3664 25.125C35.4656 27.6875 33.9929 30.0367 32.0148 32.0148C28.5382 35.4914 23.9164 37.4063 19 37.4063C14.0835 37.4063 9.46167 35.4914 5.98511 32.0148C4.00698 30.0367 2.53433 27.6875 1.63354 25.125H36.3664Z"
        fill="#282828" />
    <path opacity="0.13"
        d="M37.4063 19.0002C37.4063 23.9166 35.4915 28.5385 32.0149 32.015C28.5384 35.4916 23.9165 37.4064 19.0001 37.4064C15.2485 37.4064 11.6688 36.2916 8.63916 34.2189C11.7485 35.5729 15.1782 36.051 18.6228 35.5744C23.5634 34.8908 27.9415 32.3236 30.9517 28.3471C33.961 24.3697 35.2423 19.4588 34.5587 14.5189C33.9603 10.201 31.9251 6.3127 28.7665 3.3916C29.9298 4.12207 31.0196 4.99004 32.0149 5.98535C35.4915 9.46192 37.4063 14.0838 37.4063 19.0002Z"
        fill="#160204" />
    <path opacity="0.25"
        d="M27.7492 2.79688C24.4719 1.85156 20.9875 1.80625 17.6039 2.70078C12.6719 4.00547 8.54375 7.15234 5.97812 11.5617C3.41328 15.9719 2.71875 21.1164 4.02344 26.0484C4.81953 29.0594 6.30234 31.7703 8.34062 34.0102C7.50937 33.418 6.72188 32.7516 5.98516 32.0148C2.50859 28.5383 0.59375 23.9164 0.59375 19C0.59375 14.0836 2.50859 9.46172 5.98516 5.98516C9.46172 2.50859 14.0836 0.59375 19 0.59375C22.1055 0.59375 25.093 1.35781 27.7492 2.79688Z"
        fill="white" />
    <path
        d="M12.4919 18.1309L10.7367 19.3971L11.3796 21.3374C11.4499 21.5495 11.3682 21.7803 11.1767 21.91C10.9853 22.0396 10.7273 22.0391 10.5367 21.9086L8.8074 20.7245L6.9919 21.9146C6.89799 21.9761 6.78889 22.0068 6.68001 22.0068C6.56555 22.0068 6.45132 21.9731 6.35481 21.9057C6.16634 21.7743 6.08777 21.5441 6.15946 21.3337L6.82934 19.365L5.13451 18.1294C4.94944 17.9945 4.87594 17.7636 4.95147 17.5548C5.027 17.3461 5.235 17.2058 5.46876 17.2058H7.61938L8.28129 15.3575C8.35566 15.1501 8.56077 15.0095 8.79286 15.007C8.79503 15.007 8.7972 15.007 8.79923 15.007C9.02886 15.007 9.23433 15.1424 9.31297 15.3464L10.0299 17.2058H12.1598C12.3941 17.2058 12.6024 17.3467 12.6776 17.5561C12.7527 17.7654 12.678 17.9966 12.4919 18.1309ZM31.8932 17.5559C31.8181 17.3466 31.6098 17.2056 31.3754 17.2056H29.2455L28.5286 15.3463C28.45 15.1423 28.2445 15.0068 28.0149 15.0068C28.0129 15.0068 28.0107 15.0068 28.0085 15.0068C27.7764 15.0094 27.5713 15.1499 27.4969 15.3574L26.835 17.2056H24.6844C24.4507 17.2056 24.2427 17.346 24.1671 17.5546C24.0916 17.7635 24.1652 17.9943 24.3502 18.1292L26.045 19.3649L25.3751 21.3335C25.3034 21.544 25.3821 21.7741 25.5705 21.9056C25.667 21.9729 25.7812 22.0067 25.8957 22.0067C26.0046 22.0067 26.1137 21.9761 26.2076 21.9145L28.0231 20.7243L29.7523 21.9084C29.943 22.039 30.2009 22.0395 30.3924 21.9099C30.5838 21.7802 30.6655 21.5494 30.5952 21.3372L29.9524 19.397L31.7075 18.1307C31.8937 17.9966 31.9683 17.7654 31.8932 17.5559Z"
        fill="#CA0919" />
    <path
        d="M21.7016 18.1308L19.8978 19.3971L20.5585 21.3374C20.6308 21.5495 20.5467 21.7803 20.35 21.91C20.1533 22.0396 19.8881 22.0391 19.6922 21.9086L17.915 20.7244L16.0492 21.9146C15.9527 21.9761 15.8406 22.0068 15.7287 22.0068C15.6111 22.0068 15.4937 21.9731 15.3945 21.9057C15.2008 21.7743 15.1201 21.5441 15.1937 21.3337L15.8822 19.3649L14.1404 18.1293C13.9502 17.9944 13.8747 17.7635 13.9523 17.5547C14.0299 17.346 14.2437 17.2057 14.4839 17.2057H16.6941L17.3743 15.3574C17.4508 15.1499 17.6616 15.0094 17.9001 15.0068C17.9023 15.0068 17.9046 15.0068 17.9066 15.0068C18.1426 15.0068 18.3538 15.1422 18.4346 15.3463L19.1714 17.2057H21.3603C21.6011 17.2057 21.8152 17.3466 21.8924 17.556C21.9696 17.7654 21.8929 17.9965 21.7016 18.1308Z"
        fill="#CA0919" />
</svg>
    