<svg width="38" height="38" viewBox="0 0 38 38" fill="none" xmlns="http://www.w3.org/2000/svg">
    <path
        d="M37.406 19.0001C37.406 23.9165 35.4914 28.5386 32.015 32.015C28.5386 35.4914 23.9165 37.406 19.0001 37.406C14.0837 37.406 9.46158 35.4914 5.98518 32.015C2.50877 28.5386 0.594238 23.9165 0.594238 19.0001C0.594238 14.0837 2.50877 9.46158 5.98518 5.98518C9.46158 2.50877 14.0837 0.594238 19.0001 0.594238C23.9165 0.594238 28.5386 2.50877 32.015 5.98518C35.4914 9.46158 37.406 14.0837 37.406 19.0001Z"
        fill="#DC0917" />
    <path opacity="0.13"
        d="M37.4063 19.0002C37.4063 23.9166 35.4915 28.5385 32.0149 32.015C28.5384 35.4916 23.9165 37.4064 19.0001 37.4064C15.2485 37.4064 11.6688 36.2916 8.63916 34.2189C11.7485 35.5729 15.1782 36.051 18.6228 35.5744C23.5634 34.8908 27.9415 32.3236 30.9517 28.3471C33.961 24.3697 35.2423 19.4588 34.5587 14.5189C33.9603 10.201 31.9251 6.3127 28.7665 3.3916C29.9298 4.12207 31.0196 4.99004 32.0149 5.98535C35.4915 9.46192 37.4063 14.0838 37.4063 19.0002Z"
        fill="#160204" />
    <path opacity="0.25"
        d="M27.7492 2.79688C24.4719 1.85156 20.9875 1.80625 17.6039 2.70078C12.6719 4.00547 8.54375 7.15234 5.97812 11.5617C3.41328 15.9719 2.71875 21.1164 4.02344 26.0484C4.81953 29.0594 6.30234 31.7703 8.34062 34.0102C7.50937 33.418 6.72188 32.7516 5.98516 32.0148C2.50859 28.5383 0.59375 23.9164 0.59375 19C0.59375 14.0836 2.50859 9.46172 5.98516 5.98516C9.46172 2.50859 14.0836 0.59375 19 0.59375C22.1055 0.59375 25.093 1.35781 27.7492 2.79688Z"
        fill="white" />
    <path
        d="M22.9661 24.9972C21.4668 26.3754 19.5118 27.1327 17.4743 27.1331C6.74942 26.8525 6.75278 11.1475 17.4741 10.8672C19.5147 10.8681 21.4748 11.6267 22.9738 13.0108C23.0564 13.1023 23.0759 13.2412 23.0221 13.3519C22.9525 13.5031 22.757 13.5727 22.6079 13.4976C21.7823 13.1016 20.8959 12.9008 19.9729 12.9008C16.6097 12.9008 13.8735 15.637 13.8736 19.0002C13.7751 23.3908 18.7015 26.4729 22.6074 24.503C22.7294 24.4441 22.8817 24.4735 22.9712 24.5738H22.9714C23.0057 24.6121 23.0308 24.6585 23.0433 24.7084C23.0683 24.8109 23.0398 24.9205 22.9661 24.9972ZM29.5412 20.8079L28.1551 18.8869L29.5157 16.8802C29.5858 16.7769 29.582 16.6405 29.5068 16.541C29.4313 16.4417 29.3009 16.4013 29.1826 16.4409L26.9595 17.1829L25.5225 15.3727C25.4458 15.2759 25.3161 15.2381 25.1994 15.2786C25.0825 15.3191 25.004 15.4288 25.0035 15.5525L24.9952 17.8382L22.7477 18.5884C22.6295 18.6277 22.5497 18.7378 22.5487 18.8625C22.5479 18.9869 22.6263 19.098 22.7438 19.1392L24.9686 19.9159L24.9961 22.3227C24.9976 22.4473 25.0784 22.5574 25.1971 22.5959C25.2267 22.6055 25.2572 22.6104 25.2872 22.6104C25.3772 22.6104 25.4643 22.5683 25.5204 22.4934L26.9734 20.5475L29.2175 21.2559C29.3373 21.2937 29.4677 21.2506 29.541 21.1489C29.6147 21.047 29.6147 20.9098 29.5412 20.8079Z"
        fill="#EFEFEF" />
</svg>
    