<svg width="38" height="38" viewBox="0 0 38 38" fill="none" xmlns="http://www.w3.org/2000/svg">
    <path
        d="M37.4058 19.0001C37.4058 23.9165 35.4913 28.5386 32.0149 32.015C28.5385 35.4914 23.9164 37.406 19 37.406C14.0836 37.406 9.46146 35.4914 5.98505 32.015C2.50865 28.5386 0.594116 23.9165 0.594116 19.0001C0.594116 14.0837 2.50865 9.46158 5.98505 5.98518C9.46146 2.50877 14.0836 0.594238 19 0.594238C23.9164 0.594238 28.5385 2.50877 32.0149 5.98518C35.4913 9.46158 37.4058 14.0837 37.4058 19.0001Z"
        fill="#EFEFEF" />
    <path
        d="M9.51519 3.4443H9.14987C9.30222 3.34742 9.45597 3.2532 9.61089 3.16102L9.51519 3.4443ZM19 0.59375V18.8742L0.594482 18.8836C0.615186 15.4806 1.55495 12.2227 3.29417 9.39164L3.8105 9.79086L3.55089 10.6003C3.52292 10.6868 3.55347 10.7815 3.62659 10.8355C3.62659 10.8355 3.74722 10.9271 3.8737 10.8392L4.57792 10.3499L5.24862 10.8366C5.32245 10.8904 5.42269 10.8906 5.49698 10.8373C5.57112 10.7839 5.60276 10.6891 5.57558 10.6017L5.3262 9.80398L6.00706 9.28328C6.07925 9.2282 6.10815 9.13289 6.07909 9.04688C6.04987 8.96078 5.96909 8.90281 5.87823 8.90281H5.05214L4.77386 8.13836C4.74347 8.05437 4.66347 8.00508 4.5748 7.99883C4.42058 7.98789 4.37378 8.14297 4.37378 8.14297L4.11706 8.90289H3.60526C4.29003 7.86352 5.08464 6.88563 5.98511 5.98516C6.78714 5.18313 7.65073 4.46539 8.56417 3.83391L9.2087 4.33227L8.94886 5.14195C8.92105 5.2282 8.95167 5.32289 9.02464 5.37711C9.02464 5.37711 9.14714 5.46703 9.27175 5.38055L9.97597 4.89141L10.6466 5.37797C10.7207 5.4318 10.8208 5.43195 10.895 5.37883C10.9691 5.32531 11.0009 5.23039 10.9736 5.1432L10.7244 4.34547L11.4052 3.82461C11.4772 3.76953 11.5063 3.67445 11.4772 3.58836C11.448 3.50227 11.3672 3.44422 11.2763 3.44422H10.4503L10.221 2.81406C12.8844 1.36453 15.8828 0.59375 19 0.59375ZM6.07894 14.4729C6.04972 14.3866 5.96894 14.3287 5.87808 14.3287H5.05214L4.77386 13.5642C4.77386 13.5642 4.74206 13.4247 4.57214 13.4247C4.48222 13.4247 4.40245 13.4836 4.37378 13.5689L4.11706 14.3288H3.28292C3.19229 14.3288 3.11144 14.3866 3.08229 14.4725C3.05292 14.5582 3.08151 14.6533 3.15331 14.7087L3.8105 15.2168L3.55089 16.0264C3.52292 16.113 3.55347 16.2075 3.62659 16.2616C3.62659 16.2616 3.73097 16.3644 3.8737 16.2652L4.57792 15.7759L5.24862 16.2627C5.32245 16.3166 5.42269 16.3167 5.49698 16.2634C5.57112 16.21 5.60276 16.1153 5.57558 16.028L5.3262 15.2301L6.00706 14.7093C6.07909 14.654 6.108 14.559 6.07894 14.4729ZM11.4771 14.4729C11.4479 14.3866 11.3671 14.3287 11.2762 14.3287H10.4502L10.172 13.5642C10.172 13.5642 10.1181 13.4187 9.97026 13.4247C9.8805 13.4284 9.80081 13.4836 9.7719 13.5689L9.51519 14.3288H8.68104C8.59042 14.3288 8.50956 14.3866 8.4805 14.4725C8.45104 14.5582 8.47956 14.6533 8.55136 14.7087L9.20878 15.2168L8.94894 16.0264C8.92112 16.113 8.95175 16.2075 9.02472 16.2616C9.02472 16.2616 9.14097 16.3562 9.27183 16.2652L9.97604 15.7759L10.6467 16.2627C10.7207 16.3166 10.8209 16.3167 10.8951 16.2634C10.9692 16.21 11.001 16.1153 10.9737 16.028L10.7245 15.2301L11.4053 14.7093C11.4771 14.654 11.5062 14.559 11.4771 14.4729ZM11.4771 9.04695C11.4479 8.96086 11.3671 8.90289 11.2762 8.90289H10.4502L10.172 8.13844C10.172 8.13844 10.1262 7.99891 9.97026 7.99891C9.8805 7.99891 9.80081 8.05773 9.7719 8.14305L9.51519 8.90297H8.68104C8.59042 8.90297 8.50956 8.96062 8.4805 9.04664C8.45104 9.13242 8.47956 9.22727 8.55136 9.28281L9.20878 9.79094L8.94894 10.6004C8.92112 10.6869 8.95175 10.7816 9.02472 10.8355C9.02472 10.8355 9.13565 10.9339 9.27183 10.8393L9.97604 10.35L10.6467 10.8367C10.7207 10.8905 10.8209 10.8907 10.8951 10.8374C10.9692 10.784 11.001 10.6891 10.9737 10.6018L10.7245 9.80406L11.4053 9.28336C11.4771 9.22828 11.5062 9.13297 11.4771 9.04695ZM16.8753 14.4729C16.846 14.3866 16.7653 14.3287 16.6743 14.3287H15.8483L15.5702 13.5642C15.5398 13.4803 15.46 13.427 15.3708 13.4247C15.2085 13.4205 15.1702 13.5689 15.1702 13.5689L14.9134 14.3288H14.0792C13.9885 14.3288 13.9079 14.3866 13.8785 14.4725C13.8492 14.5582 13.8778 14.6533 13.9496 14.7087L14.607 15.2168L14.347 16.0264C14.3193 16.113 14.3497 16.2075 14.4228 16.2616C14.4228 16.2616 14.545 16.352 14.67 16.2652L15.3742 15.7759L16.0448 16.2627C16.1188 16.3166 16.2189 16.3167 16.2932 16.2634C16.3675 16.21 16.3992 16.1153 16.372 16.028L16.1226 15.2301L16.8034 14.7093C16.8754 14.654 16.9043 14.559 16.8753 14.4729ZM16.8753 9.04695C16.846 8.96086 16.7653 8.90289 16.6743 8.90289H15.8483L15.5702 8.13844C15.5398 8.05445 15.46 7.99641 15.3708 7.99891C15.2036 8.00359 15.1702 8.14305 15.1702 8.14305L14.9134 8.90297H14.0792C13.9885 8.90297 13.9079 8.96062 13.8785 9.04664C13.8492 9.13242 13.8778 9.22727 13.9496 9.28281L14.607 9.79094L14.347 10.6004C14.3193 10.6869 14.3497 10.7816 14.4228 10.8355C14.4228 10.8355 14.5339 10.9339 14.67 10.8393L15.3742 10.35L16.0448 10.8367C16.1188 10.8905 16.2189 10.8907 16.2932 10.8374C16.3675 10.784 16.3992 10.6891 16.372 10.6018L16.1226 9.80406L16.8034 9.28336C16.8754 9.22828 16.9043 9.13297 16.8753 9.04695ZM16.8753 3.58836C16.846 3.50227 16.7653 3.44422 16.6743 3.44422H15.8483L15.5702 2.67977C15.5702 2.67977 15.5195 2.53203 15.3684 2.54016C15.2786 2.54492 15.1989 2.59906 15.1702 2.68438L14.9134 3.4443L14.0792 3.44422C13.9885 3.4443 13.9079 3.50203 13.8785 3.58781C13.8492 3.67383 13.8778 3.76875 13.9496 3.82398L14.607 4.33227L14.347 5.14195C14.3193 5.2282 14.3485 5.32461 14.4228 5.37711C14.5542 5.46977 14.67 5.38055 14.67 5.38055L15.3742 4.89141L16.0448 5.37797C16.1188 5.4318 16.2189 5.43195 16.2932 5.37883C16.3675 5.32531 16.3992 5.23039 16.372 5.1432L16.1226 4.34547L16.8034 3.82461C16.8754 3.76961 16.9043 3.67453 16.8753 3.58836Z"
        fill="#0152B7" />
    <path
        d="M37.4062 19C37.4062 21.0711 37.0664 23.0906 36.4125 24.9945H1.5875C0.933594 23.0906 0.59375 21.0711 0.59375 19C0.59375 18.9625 0.59375 18.9242 0.594531 18.8867H37.4055C37.4062 18.9242 37.4062 18.9625 37.4062 19ZM5.13203 31.1023C5.40469 31.4141 5.68906 31.7188 5.98516 32.0148C9.46172 35.4914 14.0836 37.4063 19 37.4063C23.9164 37.4063 28.5383 35.4914 32.0148 32.0148C32.3109 31.7188 32.5953 31.4141 32.868 31.1023H5.13203ZM19 12.7797H36.3328C35.5359 10.5516 34.3055 8.48828 32.6852 6.69141H19V12.7797Z"
        fill="#D90028" />
    <path opacity="0.13"
        d="M37.4062 19.0002C37.4062 23.9166 35.4914 28.5385 32.0148 32.015C28.5383 35.4916 23.9164 37.4064 19 37.4064C15.2484 37.4064 11.6687 36.2916 8.63904 34.2189C11.7484 35.5729 15.1781 36.051 18.6226 35.5744C23.5633 34.8908 27.9414 32.3236 30.9515 28.3471C33.9609 24.3697 35.2422 19.4588 34.5586 14.5189C33.9601 10.201 31.925 6.3127 28.7664 3.3916C29.9297 4.12207 31.0195 4.99004 32.0148 5.98535C35.4914 9.46192 37.4062 14.0838 37.4062 19.0002Z"
        fill="#160204" />
    <path opacity="0.25"
        d="M27.7492 2.79688C24.4719 1.85156 20.9875 1.80625 17.6039 2.70078C12.6719 4.00547 8.54375 7.15234 5.97812 11.5617C3.41328 15.9719 2.71875 21.1164 4.02344 26.0484C4.81953 29.0594 6.30234 31.7703 8.34062 34.0102C7.50937 33.418 6.72188 32.7516 5.98516 32.0148C2.50859 28.5383 0.59375 23.9164 0.59375 19C0.59375 14.0836 2.50859 9.46172 5.98516 5.98516C9.46172 2.50859 14.0836 0.59375 19 0.59375C22.1055 0.59375 25.093 1.35781 27.7492 2.79688Z"
        fill="white" />
</svg>
    