<svg width="22" height="22" viewBox="0 0 22 22" xmlns="http://www.w3.org/2000/svg">
    <path
        d="M4.00014 13.0039H17.1359C18.1487 13.0039 18.6551 13.0039 19.0582 12.8151C19.4134 12.6487 19.7118 12.3817 19.9163 12.0471C20.1485 11.6672 20.2044 11.1639 20.3163 10.1573L20.9013 4.89225C20.9355 4.58479 20.9525 4.43106 20.9031 4.31207C20.8597 4.20756 20.7821 4.12088 20.683 4.06618C20.5702 4.00391 20.4155 4.00391 20.1062 4.00391H3.50014M1 1.00391H2.24844C2.51306 1.00391 2.64537 1.00391 2.74889 1.05423C2.84002 1.09853 2.91554 1.16948 2.96544 1.25767C3.02212 1.35784 3.03037 1.4899 3.04688 1.754L3.95312 16.2538C3.96963 16.5179 3.97788 16.65 4.03456 16.7501C4.08446 16.8383 4.15998 16.9093 4.25111 16.9536C4.35463 17.0039 4.48694 17.0039 4.75156 17.0039H18M6.5 20.5039H6.51M15.5 20.5039H15.51M7 20.5039C7 20.78 6.77614 21.0039 6.5 21.0039C6.22386 21.0039 6 20.78 6 20.5039C6 20.2278 6.22386 20.0039 6.5 20.0039C6.77614 20.0039 7 20.2278 7 20.5039ZM16 20.5039C16 20.78 15.7761 21.0039 15.5 21.0039C15.2239 21.0039 15 20.78 15 20.5039C15 20.2278 15.2239 20.0039 15.5 20.0039C15.7761 20.0039 16 20.2278 16 20.5039Z"
        fill="none" stroke-width="1.3" stroke-linecap="round" stroke-linejoin="round" />
</svg>
    