<svg width="20" height="19" viewBox="0 0 20 19"  xmlns="http://www.w3.org/2000/svg">
    <path
        d="M17.7501 10.5039H2.75012C2.55121 10.5039 2.36044 10.4249 2.21979 10.2842C2.07914 10.1436 2.00012 9.95282 2.00012 9.75391V0.753906C2.00012 0.554994 2.07914 0.364229 2.21979 0.223576C2.36044 0.082924 2.55121 0.00390625 2.75012 0.00390625H17.7501C17.949 0.00390625 18.1398 0.082924 18.2805 0.223576C18.4211 0.364229 18.5001 0.554994 18.5001 0.753906V9.75391C18.5001 9.95282 18.4211 10.1436 18.2805 10.2842C18.1398 10.4249 17.949 10.5039 17.7501 10.5039ZM3.50012 9.00391H17.0001V1.50391H3.50012V9.00391Z"
        stroke="none" />
    <path
        d="M17.0001 18.2539C16.8518 18.2539 16.7068 18.2099 16.5835 18.1275C16.4602 18.045 16.3641 17.9279 16.3074 17.7909C16.2506 17.6539 16.2358 17.5031 16.2647 17.3576C16.2936 17.2122 16.365 17.0785 16.4699 16.9737L17.4395 16.0039H1.25012C1.05121 16.0039 0.860444 15.9249 0.719792 15.7842C0.57914 15.6436 0.500122 15.4528 0.500122 15.2539C0.500122 15.055 0.57914 14.8642 0.719792 14.7236C0.860444 14.5829 1.05121 14.5039 1.25012 14.5039H19.2501C19.3984 14.5039 19.5434 14.5479 19.6667 14.6304C19.79 14.7128 19.8861 14.8299 19.9429 14.9669C19.9996 15.1039 20.0145 15.2547 19.9856 15.4002C19.9566 15.5456 19.8852 15.6793 19.7804 15.7842L17.5304 18.0342C17.4608 18.1039 17.3782 18.1592 17.2872 18.197C17.1962 18.2347 17.0986 18.254 17.0001 18.2539Z"
        stroke="none" />
    <path
        d="M17.0001 12.0791C16.8518 12.0791 16.7068 12.1231 16.5835 12.2055C16.4602 12.288 16.3641 12.4051 16.3074 12.5421C16.2506 12.6791 16.2358 12.8299 16.2647 12.9754C16.2936 13.1208 16.365 13.2545 16.4699 13.3594L17.4395 14.3291H1.25012C1.05121 14.3291 0.860444 14.4081 0.719792 14.5488C0.57914 14.6894 0.500122 14.8802 0.500122 15.0791C0.500122 15.278 0.57914 15.4688 0.719792 15.6094C0.860444 15.7501 1.05121 15.8291 1.25012 15.8291H19.2501C19.3984 15.8291 19.5434 15.7851 19.6667 15.7027C19.79 15.6202 19.8861 15.5031 19.9429 15.3661C19.9996 15.2291 20.0145 15.0783 19.9856 14.9328C19.9566 14.7874 19.8852 14.6537 19.7804 14.5489L17.5304 12.2989C17.4608 12.2291 17.3782 12.1738 17.2872 12.1361C17.1962 12.0983 17.0986 12.079 17.0001 12.0791Z"
        stroke="none" />
    <path
        d="M10.2501 7.4834C9.81437 7.4834 9.38843 7.35556 9.02613 7.11606C8.66383 6.87655 8.38145 6.53613 8.2147 6.13784C8.04795 5.73956 8.00432 5.30129 8.08933 4.87848C8.17434 4.45566 8.38416 4.06727 8.69227 3.76244C9.00038 3.45761 9.39294 3.25001 9.8203 3.16591C10.2477 3.0818 10.6906 3.12497 11.0932 3.28994C11.4958 3.45492 11.8398 3.73429 12.0819 4.09274C12.324 4.45119 12.4532 4.87261 12.4532 5.30371C12.4526 5.88161 12.2203 6.43565 11.8072 6.84428C11.3942 7.25292 10.8342 7.48276 10.2501 7.4834ZM10.2501 4.57715C10.1049 4.57715 9.96288 4.61976 9.84211 4.6996C9.72135 4.77943 9.62722 4.89291 9.57164 5.02567C9.51606 5.15843 9.50151 5.30452 9.52985 5.44546C9.55818 5.5864 9.62813 5.71586 9.73083 5.81747C9.83353 5.91908 9.96439 5.98828 10.1068 6.01631C10.2493 6.04435 10.397 6.02996 10.5311 5.97497C10.6653 5.91998 10.78 5.82685 10.8607 5.70737C10.9414 5.58789 10.9845 5.44741 10.9845 5.30371C10.9842 5.11109 10.9068 4.92643 10.7691 4.79023C10.6314 4.65403 10.4448 4.5774 10.2501 4.57715Z"
        stroke="none" />
    <path
        d="M5.84387 6.03027C6.24945 6.03027 6.57824 5.70498 6.57824 5.30371C6.57824 4.90244 6.24945 4.57715 5.84387 4.57715C5.43829 4.57715 5.1095 4.90244 5.1095 5.30371C5.1095 5.70498 5.43829 6.03027 5.84387 6.03027Z"
        stroke="none" />
    <path
        d="M14.6564 6.03027C15.0619 6.03027 15.3907 5.70498 15.3907 5.30371C15.3907 4.90244 15.0619 4.57715 14.6564 4.57715C14.2508 4.57715 13.922 4.90244 13.922 5.30371C13.922 5.70498 14.2508 6.03027 14.6564 6.03027Z"
        stroke="none" />
</svg>
    