<svg width="21" height="24" viewBox="0 0 21 24"  xmlns="http://www.w3.org/2000/svg">
    <path
        d="M14.2496 21.004H8.55684L8.78185 20.7865C8.92308 20.6453 9.00242 20.4537 9.00242 20.254C9.00242 20.0542 8.92308 19.8627 8.78185 19.7214C8.64061 19.5802 8.44906 19.5009 8.24932 19.5009C8.04959 19.5009 7.85803 19.5802 7.7168 19.7214L6.21673 21.2215C6.14643 21.2912 6.09063 21.3742 6.05256 21.4656C6.01448 21.557 5.99487 21.655 5.99487 21.754C5.99487 21.8531 6.01448 21.9511 6.05256 22.0425C6.09063 22.1339 6.14643 22.2168 6.21673 22.2866C7.8518 23.9216 7.8443 24.0041 8.24932 24.0041C8.3983 24.005 8.54415 23.9615 8.6683 23.8791C8.79245 23.7968 8.88925 23.6793 8.94638 23.5417C9.00351 23.4041 9.01837 23.2527 8.98906 23.1066C8.95976 22.9605 8.88762 22.8265 8.78185 22.7216L8.55684 22.5041H14.2496C14.4485 22.5041 14.6393 22.425 14.7799 22.2844C14.9206 22.1437 14.9996 21.953 14.9996 21.754C14.9996 21.5551 14.9206 21.3643 14.7799 21.2237C14.6393 21.083 14.4485 21.004 14.2496 21.004ZM6.74926 3.0032H12.442L12.217 3.22071C12.1112 3.32562 12.0391 3.45965 12.0098 3.60572C11.9805 3.75179 11.9953 3.90327 12.0525 4.04086C12.1096 4.17845 12.2064 4.29591 12.3305 4.37826C12.4547 4.46062 12.6005 4.50414 12.7495 4.50327C13.1545 4.50327 13.177 4.39076 14.7821 2.78569C14.8524 2.71597 14.9082 2.63301 14.9463 2.54161C14.9844 2.45022 15.004 2.35218 15.004 2.25317C15.004 2.15416 14.9844 2.05612 14.9463 1.96472C14.9082 1.87333 14.8524 1.79037 14.7821 1.72065L13.282 0.220579C13.2121 0.150647 13.1291 0.0951734 13.0377 0.0573265C12.9464 0.0194796 12.8484 0 12.7495 0C12.5498 0 12.3582 0.0793445 12.217 0.220579C12.0758 0.361813 11.9964 0.553367 11.9964 0.753102C11.9964 0.952837 12.0758 1.14439 12.217 1.28563L12.442 1.50314H6.74926C6.55033 1.50314 6.35956 1.58216 6.2189 1.72282C6.07824 1.86347 5.99922 2.05425 5.99922 2.25317C5.99922 2.45209 6.07824 2.64286 6.2189 2.78352C6.35956 2.92418 6.55033 3.0032 6.74926 3.0032Z"
        stroke="none" />
    <path
        d="M18.8024 18.754H7.49936C7.30044 18.754 7.10966 18.675 6.969 18.5343C6.82835 18.3937 6.74932 18.2029 6.74932 18.004C6.74932 17.8051 6.82835 17.6143 6.969 17.4736C7.10966 17.333 7.30044 17.254 7.49936 17.254H18.8024C18.9874 17.254 19.1648 17.1805 19.2956 17.0497C19.4264 16.9188 19.4999 16.7414 19.4999 16.5564V7.45102C19.4999 7.26602 19.4264 7.0886 19.2956 6.95779C19.1648 6.82697 18.9874 6.75348 18.8024 6.75348H2.19662C2.01162 6.75348 1.8342 6.82697 1.70339 6.95779C1.57258 7.0886 1.49909 7.26602 1.49909 7.45102V16.5564C1.49909 16.7414 1.57258 16.9188 1.70339 17.0497C1.8342 17.1805 2.01162 17.254 2.19662 17.254H4.49922C4.69814 17.254 4.88892 17.333 5.02958 17.4736C5.17024 17.6143 5.24926 17.8051 5.24926 18.004C5.24926 18.2029 5.17024 18.3937 5.02958 18.5343C4.88892 18.675 4.69814 18.754 4.49922 18.754H2.19662C1.61378 18.754 1.05481 18.5225 0.642685 18.1104C0.230555 17.6982 -0.000976562 17.1393 -0.000976562 16.5564V7.45102C-0.000976562 6.86818 0.230555 6.30921 0.642685 5.89708C1.05481 5.48495 1.61378 5.25342 2.19662 5.25342H18.8024C19.3852 5.25342 19.9442 5.48495 20.3563 5.89708C20.7684 6.30921 21 6.86818 21 7.45102V16.5564C21 16.845 20.9431 17.1308 20.8327 17.3974C20.7222 17.664 20.5604 17.9063 20.3563 18.1104C20.1522 18.3144 19.91 18.4763 19.6433 18.5867C19.3767 18.6972 19.091 18.754 18.8024 18.754Z"
        stroke="none" />
    <path
        d="M10.4995 15.7538C8.84191 15.7538 7.49935 14.0737 7.49935 12.0036C7.49935 9.93349 8.84191 8.25342 10.4995 8.25342C12.1571 8.25342 13.4996 9.93349 13.4996 12.0036C13.4996 14.0737 12.1571 15.7538 10.4995 15.7538ZM10.4995 9.75348C9.68944 9.75348 8.99941 10.781 8.99941 12.0036C8.99941 13.2261 9.68944 14.2537 10.4995 14.2537C11.3095 14.2537 11.9995 13.2261 11.9995 12.0036C11.9995 10.781 11.3095 9.75348 10.4995 9.75348ZM5.24925 12.7536H3.74918C3.55026 12.7536 3.35948 12.6746 3.21883 12.5339C3.07817 12.3933 2.99915 12.2025 2.99915 12.0036C2.99915 11.8047 3.07817 11.6139 3.21883 11.4732C3.35948 11.3326 3.55026 11.2536 3.74918 11.2536H5.24925C5.44817 11.2536 5.63894 11.3326 5.7796 11.4732C5.92026 11.6139 5.99928 11.8047 5.99928 12.0036C5.99928 12.2025 5.92026 12.3933 5.7796 12.5339C5.63894 12.6746 5.44817 12.7536 5.24925 12.7536ZM17.2498 12.7536H15.7497C15.5508 12.7536 15.36 12.6746 15.2194 12.5339C15.0787 12.3933 14.9997 12.2025 14.9997 12.0036C14.9997 11.8047 15.0787 11.6139 15.2194 11.4732C15.36 11.3326 15.5508 11.2536 15.7497 11.2536H17.2498C17.4487 11.2536 17.6395 11.3326 17.7801 11.4732C17.9208 11.6139 17.9998 11.8047 17.9998 12.0036C17.9998 12.2025 17.9208 12.3933 17.7801 12.5339C17.6395 12.6746 17.4487 12.7536 17.2498 12.7536Z"
        stroke="none" />
</svg>
    