<svg width="22" height="21" viewBox="0 0 22 21" xmlns="http://www.w3.org/2000/svg">
    <path
        d="M14.613 5.95275C14.4533 4.22046 14.065 3.27955 13.2883 2.704C12.4576 2.08845 11.0124 1.75391 8.35979 1.75391C4.80862 1.75391 3.44066 2.35236 2.78547 3.41896C2.43169 3.99491 2.22379 4.79736 2.11652 5.95026C2.0095 7.10045 2.00879 8.50671 2.00879 10.2539C2.00879 12.0011 2.0095 13.4074 2.11652 14.5575C2.22379 15.7105 2.43169 16.5129 2.78547 17.0888C3.44066 18.1554 4.80862 18.7539 8.35979 18.7539C11.0124 18.7539 12.4576 18.4194 13.2883 17.8038C14.065 17.2283 14.4533 16.2874 14.613 14.5551C14.651 14.1426 15.0162 13.8391 15.4286 13.8771C15.8411 13.9151 16.1446 14.2803 16.1066 14.6927C15.9363 16.5405 15.4896 18.0395 14.1813 19.009C12.927 19.9385 11.0372 20.2539 8.35979 20.2539C4.80996 20.2539 2.62742 19.6974 1.50735 17.874C0.973517 17.0049 0.737605 15.9286 0.622968 14.6965C0.508781 13.4693 0.508784 11.9949 0.508789 10.2855V10.2223C0.508784 8.51293 0.508781 7.03855 0.622968 5.8113C0.737605 4.5792 0.973517 3.5029 1.50735 2.63385C2.62742 0.81045 4.80996 0.253906 8.35979 0.253906C11.0372 0.253906 12.927 0.569362 14.1813 1.49882C15.4896 2.46826 15.9363 3.96736 16.1066 5.81506C16.1446 6.22753 15.8411 6.59272 15.4286 6.63074C15.0162 6.66876 14.651 6.36521 14.613 5.95275Z"
        stroke="none" />
    <path
        d="M17.3328 6.9295C17.6251 6.63601 18.1 6.63503 18.3935 6.92732L21.3215 9.84332C21.4628 9.98406 21.5422 10.1753 21.5422 10.3747C21.5422 10.5742 21.4628 10.7654 21.3215 10.9062L18.3935 13.8222C18.1 14.1144 17.6251 14.1135 17.3328 13.82C17.0405 13.5265 17.0415 13.0516 17.335 12.7593L18.9763 11.1248H8.74998C8.33576 11.1248 7.99998 10.789 7.99998 10.3748C7.99998 9.96054 8.33576 9.62476 8.74998 9.62476H18.9763L17.335 7.99016C17.0415 7.69787 17.0405 7.22299 17.3328 6.9295Z"
        stroke="none" />
</svg>
    