<svg width="22" height="16" viewBox="0 0 22 16" xmlns="http://www.w3.org/2000/svg">
    <path
        d="M13 5.00391H10.5C9.67157 5.00391 9 5.67548 9 6.50391C9 7.33233 9.67157 8.00391 10.5 8.00391H11.5C12.3284 8.00391 13 8.67548 13 9.50391C13 10.3323 12.3284 11.0039 11.5 11.0039H9M11 4.00391V5.00391M11 11.0039V12.0039M17 8.00391H17.01M5 8.00391H5.01M1 4.20391L1 11.8039C1 12.924 1 13.4841 1.21799 13.9119C1.40973 14.2882 1.71569 14.5942 2.09202 14.7859C2.51984 15.0039 3.07989 15.0039 4.2 15.0039L17.8 15.0039C18.9201 15.0039 19.4802 15.0039 19.908 14.7859C20.2843 14.5942 20.5903 14.2882 20.782 13.9119C21 13.4841 21 12.924 21 11.8039V4.20391C21 3.0838 21 2.52375 20.782 2.09593C20.5903 1.7196 20.2843 1.41364 19.908 1.22189C19.4802 1.00391 18.9201 1.00391 17.8 1.00391L4.2 1.00391C3.0799 1.00391 2.51984 1.00391 2.09202 1.22189C1.7157 1.41364 1.40973 1.7196 1.21799 2.09592C1 2.52375 1 3.0838 1 4.20391ZM17.5 8.00391C17.5 8.28005 17.2761 8.50391 17 8.50391C16.7239 8.50391 16.5 8.28005 16.5 8.00391C16.5 7.72776 16.7239 7.50391 17 7.50391C17.2761 7.50391 17.5 7.72776 17.5 8.00391ZM5.5 8.00391C5.5 8.28005 5.27614 8.50391 5 8.50391C4.72386 8.50391 4.5 8.28005 4.5 8.00391C4.5 7.72776 4.72386 7.50391 5 7.50391C5.27614 7.50391 5.5 7.72776 5.5 8.00391Z"
        fill="none" stroke-width="1.3" stroke-linecap="round" stroke-linejoin="round" />
</svg>
    