<svg width="20" height="22" viewBox="0 0 20 22" xmlns="http://www.w3.org/2000/svg">
    <path
        d="M7.39504 18.625L7.97949 19.9395C8.15323 20.3307 8.43676 20.6632 8.79571 20.8965C9.15466 21.1298 9.5736 21.254 10.0017 21.2539C10.4298 21.254 10.8488 21.1298 11.2077 20.8965C11.5667 20.6632 11.8502 20.3307 12.0239 19.9395L12.6084 18.625C12.8164 18.1586 13.1664 17.7698 13.6084 17.5139C14.0532 17.2573 14.5677 17.1481 15.0784 17.2017L16.5084 17.3539C16.934 17.3989 17.3636 17.3195 17.7451 17.1252C18.1265 16.931 18.4434 16.6302 18.6573 16.2595C18.8714 15.8889 18.9735 15.4642 18.951 15.0368C18.9285 14.6094 18.7825 14.1977 18.5306 13.8517L17.6839 12.6884C17.3825 12.271 17.2214 11.7687 17.2239 11.2539C17.2238 10.7405 17.3864 10.2403 17.6884 9.82502L18.535 8.66168C18.7869 8.31566 18.933 7.90398 18.9554 7.47658C18.9779 7.04918 18.8759 6.62445 18.6617 6.25391C18.4478 5.88314 18.1309 5.5824 17.7495 5.38813C17.3681 5.19387 16.9385 5.11444 16.5128 5.15946L15.0828 5.31168C14.5722 5.36532 14.0576 5.25603 13.6128 4.99946C13.1699 4.74216 12.8199 4.35126 12.6128 3.8828L12.0239 2.56835C11.8502 2.17708 11.5667 1.84462 11.2077 1.61131C10.8488 1.37799 10.4298 1.25384 10.0017 1.25391C9.5736 1.25384 9.15466 1.37799 8.79571 1.61131C8.43676 1.84462 8.15323 2.17708 7.97949 2.56835L7.39504 3.8828C7.18797 4.35126 6.83792 4.74216 6.39504 4.99946C5.95026 5.25603 5.43571 5.36532 4.92504 5.31168L3.4906 5.15946C3.06493 5.11444 2.63534 5.19387 2.25391 5.38813C1.87249 5.5824 1.55561 5.88314 1.34171 6.25391C1.12753 6.62445 1.02549 7.04918 1.04798 7.47658C1.07046 7.90398 1.2165 8.31566 1.46838 8.66168L2.31504 9.82502C2.61698 10.2403 2.77958 10.7405 2.77949 11.2539C2.77958 11.7673 2.61698 12.2676 2.31504 12.6828L1.46838 13.8461C1.2165 14.1922 1.07046 14.6038 1.04798 15.0312C1.02549 15.4586 1.12753 15.8834 1.34171 16.2539C1.55582 16.6245 1.87274 16.9251 2.25411 17.1193C2.63548 17.3135 3.06496 17.3931 3.4906 17.3484L4.9206 17.1961C5.43127 17.1425 5.94581 17.2518 6.3906 17.5084C6.83513 17.7649 7.18681 18.1559 7.39504 18.625Z"
        fill="none" stroke-width="1.3" stroke-linecap="round" stroke-linejoin="round" />
    <path
        d="M9.99992 14.2539C11.6568 14.2539 12.9999 12.9108 12.9999 11.2539C12.9999 9.59705 11.6568 8.25391 9.99992 8.25391C8.34307 8.25391 6.99992 9.59705 6.99992 11.2539C6.99992 12.9108 8.34307 14.2539 9.99992 14.2539Z"
        fill="none" stroke-width="1.3" stroke-linecap="round" stroke-linejoin="round" />
</svg>
    