<svg width="19" height="23" viewBox="0 0 19 23" xmlns="http://www.w3.org/2000/svg">
    <path
        d="M5.38982 10.2038H4.02841C3.23167 10.2038 2.58191 9.47205 2.58191 8.57477V7.03285C2.58191 6.13557 3.23167 5.40381 4.02841 5.40381H4.47319C4.70911 5.40381 4.91023 5.59982 4.94504 5.86116C5.07654 6.82813 5.5948 8.11742 6.1324 9.36751C6.19429 9.50689 6.19815 9.66806 6.14401 9.81179C6.08986 9.95553 5.98543 10.0644 5.85393 10.1123C5.70309 10.1733 5.54452 10.2038 5.38982 10.2038ZM4.02841 6.47967C3.7538 6.47967 3.54108 6.71924 3.54108 7.02849V8.57041C3.54108 8.87967 3.7538 9.11924 4.02841 9.11924H4.96824C4.55441 8.11306 4.24113 7.24628 4.07869 6.47531H4.02841V6.47967Z"
        stroke="none" />
    <path
        d="M14.6682 22.204H0.708969C0.419923 22.204 0.181885 21.9492 0.181885 21.6295V17.7654C0.181885 14.9206 2.30722 12.604 4.91714 12.604H7.1105C7.28052 12.604 7.44205 12.692 7.53981 12.8449L9.06156 15.1754L10.5791 12.8449C10.6768 12.692 10.8383 12.604 11.0084 12.604H13.2017C13.648 12.604 14.0901 12.6735 14.5152 12.8032C14.7405 12.8727 14.8977 13.0998 14.8977 13.3546V17.7144C14.8977 17.9322 15.0593 18.1083 15.2548 18.1083C15.5438 18.1083 15.7819 18.3631 15.7819 18.6828C15.7819 18.9978 15.5481 19.2573 15.2548 19.2573H13.3717L13.4015 19.6835C13.4015 20.272 13.7458 20.7955 14.2559 20.9901H14.2601C14.3834 21.0364 14.5194 21.0596 14.664 21.0596C14.953 21.0596 15.191 21.3144 15.191 21.6341C15.1953 21.9445 14.9615 22.204 14.6682 22.204ZM1.23605 21.055H12.7299C12.4919 20.6565 12.3558 20.1793 12.3558 19.6789V19.2156C12.3558 18.604 12.8149 18.1083 13.376 18.1083H13.8946C13.8648 17.9832 13.8478 17.8488 13.8478 17.7144V13.8133C13.6353 13.7716 13.4228 13.753 13.206 13.753H11.2847L9.49513 16.5005C9.39736 16.6534 9.23584 16.7415 9.06581 16.7415C8.89578 16.7415 8.73425 16.6534 8.63649 16.5005L6.8427 13.753H4.92139C2.88957 13.753 1.23605 15.5554 1.23605 17.77V21.055Z"
        stroke="none" />
    <path
        d="M3.69556 22.204H17.6548C17.9438 22.204 18.1819 21.9492 18.1819 21.6295V17.7654C18.1819 14.9206 16.0565 12.604 13.4466 12.604H11.2533C11.0832 12.604 10.9217 12.692 10.824 12.8449L9.30221 15.1754L7.78472 12.8449C7.68695 12.692 7.52543 12.604 7.3554 12.604H5.16205C4.71573 12.604 4.27366 12.6735 3.84859 12.8032C3.6233 12.8727 3.46603 13.0998 3.46603 13.3546V17.7144C3.46603 17.9322 3.3045 18.1083 3.10897 18.1083C2.81992 18.1083 2.58188 18.3631 2.58188 18.6828C2.58188 18.9978 2.81567 19.2573 3.10897 19.2573H4.99202L4.96227 19.6835C4.96227 20.272 4.61796 20.7955 4.10788 20.9901H4.10363C3.98036 21.0364 3.84434 21.0596 3.69981 21.0596C3.41077 21.0596 3.17273 21.3144 3.17273 21.6341C3.16848 21.9445 3.40227 22.204 3.69556 22.204ZM17.1277 21.055H5.63387C5.87191 20.6565 6.00793 20.1793 6.00793 19.6789V19.2156C6.00793 18.604 5.54886 18.1083 4.98777 18.1083H4.46919C4.49894 17.9832 4.51594 17.8488 4.51594 17.7144V13.8133C4.72848 13.7716 4.94101 13.753 5.1578 13.753H7.07911L8.86864 16.5005C8.96641 16.6534 9.12793 16.7415 9.29796 16.7415C9.46799 16.7415 9.62951 16.6534 9.72728 16.5005L11.5211 13.753H13.4424C15.4742 13.753 17.1277 15.5554 17.1277 17.77V21.055Z"
        stroke="none" />
    <path
        d="M9.26624 13.8041C8.50571 13.8041 7.74109 13.455 7.05416 12.7881C6.75976 12.5061 6.47763 12.1615 6.21594 11.7632C5.92563 11.329 5.66803 10.8412 5.45541 10.313C5.44315 10.2862 5.43497 10.2593 5.43088 10.2325L5.11604 9.26121C5.10786 9.23883 5.09968 9.21198 5.0915 9.1896C5.06288 9.08218 5.03835 8.97476 5.0179 8.8763C5.01381 8.84944 5.00972 8.81811 5.00564 8.79126C4.86661 7.77079 5.3491 6.7906 6.19141 6.3833C6.24048 6.35645 6.29363 6.33407 6.34679 6.31169C6.87016 6.11923 7.31585 6.11028 7.36492 6.11028C7.4058 6.11028 7.43034 6.11476 7.46305 6.11923C9.54429 6.54891 10.82 4.53482 10.8732 4.44978C11.0204 4.21256 11.3107 4.132 11.5397 4.27522C14.1647 5.89097 13.2611 9.6327 13.1098 10.1877C13.1098 10.1877 13.1098 10.1877 13.1098 10.1922C13.1016 10.2414 13.0852 10.2862 13.0689 10.3264C12.6641 11.3245 12.1121 12.1749 11.4783 12.7926C10.7873 13.4505 10.0227 13.8041 9.26624 13.8041ZM6.39585 9.90125C6.57576 10.3443 6.79247 10.7516 7.03781 11.1142C7.25452 11.4454 7.48349 11.7274 7.72065 11.9556C8.07229 12.2958 8.62429 12.6941 9.26624 12.6941C9.78144 12.6941 10.2966 12.4479 10.8037 11.9556C11.3189 11.4588 11.7891 10.7293 12.1285 9.90125C12.1285 9.89677 12.1325 9.89229 12.1325 9.88782C12.2225 9.56109 12.9258 6.84878 11.3965 5.49711C10.7996 6.2356 9.38482 7.60518 7.3322 7.21579C7.23407 7.22027 6.9683 7.24712 6.68616 7.35007C6.66981 7.35902 6.62892 7.3814 6.60847 7.39035C6.17505 7.59623 5.92563 8.11094 6.00741 8.64804C6.00741 8.65251 6.00741 8.65699 6.00741 8.66146C6.02377 8.72412 6.03603 8.79126 6.05239 8.85392C6.05239 8.8584 6.05648 8.86287 6.05648 8.86735L6.38359 9.88334C6.39176 9.88782 6.39585 9.89229 6.39585 9.90125Z"
        stroke="none" />
    <path
        d="M12.7896 10.2258C12.7383 10.2258 12.6913 10.2173 12.6401 10.2044C12.4136 10.1403 12.2598 9.93097 12.2598 9.69595C12.2598 9.66177 12.264 9.61904 12.2726 9.58058C12.2769 9.55922 12.2811 9.53358 12.2897 9.51221C12.3837 9.20029 13.1186 6.61087 11.5205 5.32044C10.8967 6.02548 9.41825 7.333 7.27322 6.96126C7.17067 6.96553 6.89293 6.99117 6.59809 7.08944C6.581 7.09799 6.53827 7.11936 6.51691 7.1279C6.06397 7.32446 5.80332 7.81585 5.88878 8.3286C5.88878 8.33715 5.88878 8.34142 5.89305 8.34997C5.90587 8.40552 5.91869 8.46107 5.93578 8.52089C5.94433 8.54653 5.95287 8.56789 5.96142 8.59353C6.00415 8.7559 6.05543 8.93109 6.12807 9.10628C6.22634 9.36266 6.11525 9.64895 5.87169 9.76859C5.84605 9.78141 5.81187 9.79423 5.78196 9.80278C5.67086 9.84123 5.55122 9.84551 5.43585 9.80705C5.29911 9.76432 5.18801 9.66604 5.12392 9.53785C4.39324 8.03377 3.87621 6.82452 3.71811 5.79474C3.65402 5.3589 3.65402 5.01278 3.71811 4.70086C4.12405 2.43619 5.93151 0.80819 8.3201 0.560358C10.495 0.333891 11.7983 1.63714 12.2213 2.14563C13.4135 2.355 14.2211 2.90621 14.627 3.78217C15.6995 6.10239 13.3408 9.82414 13.2383 9.98224C13.1357 10.1361 12.9648 10.2258 12.7896 10.2258ZM8.80721 1.59014C8.6833 1.59014 8.55938 1.59869 8.42692 1.61151C6.51691 1.80806 5.07692 3.0985 4.75644 4.89314C4.71799 5.09397 4.72226 5.33326 4.76499 5.64091C4.82481 6.0383 4.96155 6.4955 5.14528 6.97835C5.36321 6.62796 5.68368 6.34168 6.07679 6.16648C6.12807 6.14085 6.18361 6.11948 6.23916 6.09812C6.7861 5.91438 7.25186 5.90583 7.30313 5.90583C7.34586 5.90583 7.3715 5.91011 7.40568 5.91438C9.58489 6.32458 10.9138 4.40175 10.9693 4.32056C11.1232 4.0941 11.4265 4.01718 11.6658 4.15392C12.8665 4.82905 13.3622 5.88874 13.5246 6.91853C13.8408 5.95711 13.9946 4.94869 13.6613 4.23083C13.3878 3.64116 12.7982 3.29078 11.8538 3.16259C11.7043 3.14123 11.5718 3.06004 11.4864 2.93185C11.4479 2.87203 10.5463 1.59014 8.80721 1.59014Z"
        stroke="none" />
    <path
        d="M5.78602 10.2261C5.59374 10.2261 5.41428 10.1236 5.32454 9.94411C5.26045 9.8202 5.2049 9.70055 5.14935 9.58091L5.12799 9.53391C5.00407 9.27753 5.10662 8.96988 5.35873 8.83741C5.38864 8.8246 5.4271 8.8075 5.46128 8.79468C5.58092 8.75196 5.71338 8.75623 5.83303 8.80323C5.97403 8.85878 6.08513 8.97415 6.13213 9.11516C6.17486 9.2348 6.22187 9.35017 6.27314 9.46554C6.28596 9.49118 6.29451 9.52109 6.30305 9.54673C6.37142 9.80738 6.23896 10.0937 5.98258 10.1877C5.91849 10.2133 5.85012 10.2261 5.78602 10.2261Z"
        stroke="none" />
    <path
        d="M5.79052 10.2132C5.58969 10.2132 5.39741 10.0978 5.30768 9.9055C5.24358 9.76449 5.18376 9.61921 5.13249 9.47393C5.0513 9.26883 4.98293 9.0509 4.93166 8.8458C4.86329 8.57233 5.02139 8.29459 5.29486 8.2134C5.56405 8.13222 5.85034 8.2775 5.94435 8.54242L6.28619 9.51238C6.38019 9.78158 6.24773 10.0721 5.98708 10.179C5.92298 10.2003 5.85889 10.2132 5.79052 10.2132Z"
        stroke="none" />
    <path
        d="M9.15328 11.5292H4.38038C3.73944 11.5292 3.22241 11.0079 3.22241 10.3713V9.36286C3.22241 9.07229 3.45742 8.83301 3.75226 8.83301C4.04709 8.83301 4.28211 9.06802 4.28211 9.36286V10.3713C4.28211 10.4268 4.32911 10.4738 4.38466 10.4738H9.15756C9.44812 10.4738 9.6874 10.7088 9.6874 11.0037C9.68313 11.29 9.44385 11.5292 9.15328 11.5292Z"
        stroke="none" />
</svg>
    