<svg width="22" height="21" viewBox="0 0 22 21" xmlns="http://www.w3.org/2000/svg">
    <path
        d="M11 15.0039C11 17.7653 13.2386 20.0039 16 20.0039C18.7614 20.0039 21 17.7653 21 15.0039C21 12.2425 18.7614 10.0039 16 10.0039C13.2386 10.0039 11 12.2425 11 15.0039ZM11 15.0039C11 13.8781 11.3721 12.8392 12 12.0034V3.00391M11 15.0039C11 15.8293 11.2 16.6079 11.5541 17.294C10.7117 18.0057 8.76584 18.5039 6.5 18.5039C3.46243 18.5039 1 17.6085 1 16.5039V3.00391M12 3.00391C12 4.10848 9.53757 5.00391 6.5 5.00391C3.46243 5.00391 1 4.10848 1 3.00391M12 3.00391C12 1.89934 9.53757 1.00391 6.5 1.00391C3.46243 1.00391 1 1.89934 1 3.00391M1 12.0039C1 13.1085 3.46243 14.0039 6.5 14.0039C8.689 14.0039 10.5793 13.5389 11.4646 12.8657M12 7.50391C12 8.60848 9.53757 9.50391 6.5 9.50391C3.46243 9.50391 1 8.60848 1 7.50391"
        fill="none" stroke-width="1.3" stroke-linecap="round" stroke-linejoin="round" />
</svg>
    