<svg width="20" height="19" viewBox="0 0 20 19" xmlns="http://www.w3.org/2000/svg">
    <path
        d="M17.7501 18.124H2.75012C2.55121 18.124 2.36044 18.045 2.21979 17.9044C2.07914 17.7637 2.00012 17.5729 2.00012 17.374V8.37402C2.00012 8.17511 2.07914 7.98435 2.21979 7.84369C2.36044 7.70304 2.55121 7.62402 2.75012 7.62402H17.7501C17.949 7.62402 18.1398 7.70304 18.2805 7.84369C18.4211 7.98435 18.5001 8.17511 18.5001 8.37402V17.374C18.5001 17.5729 18.4211 17.7637 18.2805 17.9044C18.1398 18.045 17.949 18.124 17.7501 18.124ZM3.50012 16.624H17.0001V9.12402H3.50012V16.624Z"
        stroke="none" />
    <path
        d="M10.2501 15.124C9.80512 15.124 9.3701 14.9921 9.00009 14.7448C8.63008 14.4976 8.34169 14.1462 8.17139 13.7351C8.0011 13.3239 7.95654 12.8715 8.04336 12.4351C8.13017 11.9986 8.34446 11.5977 8.65913 11.283C8.9738 10.9684 9.37471 10.7541 9.81117 10.6673C10.2476 10.5804 10.7 10.625 11.1112 10.7953C11.5223 10.9656 11.8737 11.254 12.1209 11.624C12.3682 11.994 12.5001 12.429 12.5001 12.874C12.4995 13.4706 12.2622 14.0425 11.8404 14.4643C11.4186 14.8861 10.8467 15.1234 10.2501 15.124ZM10.2501 12.124C10.1018 12.124 9.95678 12.168 9.83345 12.2504C9.71011 12.3328 9.61398 12.45 9.55721 12.587C9.50045 12.7241 9.4856 12.8749 9.51453 13.0203C9.54347 13.1658 9.6149 13.2995 9.71979 13.4044C9.82468 13.5092 9.95832 13.5807 10.1038 13.6096C10.2493 13.6386 10.4001 13.6237 10.5371 13.5669C10.6742 13.5102 10.7913 13.414 10.8737 13.2907C10.9561 13.1674 11.0001 13.0224 11.0001 12.874C10.9999 12.6752 10.9208 12.4846 10.7802 12.344C10.6396 12.2034 10.449 12.1243 10.2501 12.124Z"
        stroke="none" />
    <path
        d="M5.75012 13.624C6.16434 13.624 6.50012 13.2882 6.50012 12.874C6.50012 12.4598 6.16434 12.124 5.75012 12.124C5.33591 12.124 5.00012 12.4598 5.00012 12.874C5.00012 13.2882 5.33591 13.624 5.75012 13.624Z"
        stroke="none" />
    <path
        d="M14.7501 13.624C15.1643 13.624 15.5001 13.2882 15.5001 12.874C15.5001 12.4598 15.1643 12.124 14.7501 12.124C14.3359 12.124 14.0001 12.4598 14.0001 12.874C14.0001 13.2882 14.3359 13.624 14.7501 13.624Z"
        stroke="none" />
    <path
        d="M19.25 4.12409H1.24996C1.10165 4.12405 0.956676 4.08005 0.833368 3.99764C0.710061 3.91522 0.613956 3.7981 0.557204 3.66108C0.500451 3.52405 0.485599 3.37328 0.514525 3.22781C0.54345 3.08235 0.614855 2.94872 0.719712 2.84384L2.96971 0.593835C3.11116 0.457216 3.30062 0.38162 3.49726 0.383329C3.69391 0.385038 3.88202 0.463915 4.02108 0.602971C4.16013 0.742027 4.23901 0.930136 4.24072 1.12678C4.24243 1.32343 4.16683 1.51288 4.03021 1.65434L3.06054 2.62409H19.25C19.4489 2.62409 19.6396 2.7031 19.7803 2.84376C19.9209 2.98441 20 3.17517 20 3.37409C20 3.573 19.9209 3.76376 19.7803 3.90442C19.6396 4.04507 19.4489 4.12409 19.25 4.12409Z"
        stroke="none" />
    <path
        d="M19.25 2.71283H1.24996C1.10165 2.71286 0.956676 2.75686 0.833368 2.83928C0.710061 2.92169 0.613956 3.03881 0.557204 3.17584C0.500451 3.31286 0.485599 3.46364 0.514525 3.6091C0.54345 3.75457 0.614855 3.88819 0.719712 3.99308L2.96971 6.24308C3.11116 6.3797 3.30062 6.45529 3.49726 6.45358C3.69391 6.45188 3.88202 6.373 4.02108 6.23394C4.16013 6.09489 4.23901 5.90678 4.24072 5.71013C4.24243 5.51348 4.16683 5.32403 4.03021 5.18258L3.06054 4.21283H19.25C19.4489 4.21283 19.6396 4.13381 19.7803 3.99316C19.9209 3.85251 20 3.66174 20 3.46283C20 3.26392 19.9209 3.07315 19.7803 2.9325C19.6396 2.79185 19.4489 2.71283 19.25 2.71283Z"
        stroke="none" />
</svg>
    